<svg width="70" height="70" viewBox="0 0 70 70" fill="none" xmlns="http://www.w3.org/2000/svg">
<circle cx="35" cy="35" r="35" fill="#4A3BFC"/>
<path d="M19.9133 39.7486C19.1673 40.1088 18.8544 41.0055 19.2146 41.7516C19.5748 42.4976 20.4715 42.8104 21.2176 42.4503L19.9133 39.7486ZM50.9817 27.5935C51.2546 26.8113 50.8417 25.956 50.0595 25.6832L37.3128 21.2366C36.5306 20.9638 35.6753 21.3767 35.4024 22.1589C35.1296 22.9411 35.5425 23.7964 36.3247 24.0692L47.6551 28.0217L43.7026 39.3521C43.4297 40.1343 43.8426 40.9896 44.6248 41.2625C45.407 41.5353 46.2623 41.1224 46.5352 40.3402L50.9817 27.5935ZM21.2176 42.4503L50.2176 28.4503L48.9133 25.7486L19.9133 39.7486L21.2176 42.4503Z" fill="white"/>
</svg>
